<svg width="424" height="8" viewBox="0 0 424 8" fill="none" xmlns="http://www.w3.org/2000/svg">
<mask id="mask0_9_3849" style="mask-type:luminance" maskUnits="userSpaceOnUse" x="0" y="0" width="424" height="8">
<path d="M0 0.671875H424V7.67188H0V0.671875Z" fill="white"/>
</mask>
<g mask="url(#mask0_9_3849)">
<path fill-rule="evenodd" clip-rule="evenodd" d="M422.703 4.18249C422.703 4.18249 403.021 3.71374 372.136 3.10436C351.13 2.6877 324.958 2.17207 296.281 1.70853C282.698 1.48978 268.557 1.27624 254.141 1.11478C240.261 0.953321 226.13 0.807489 212 0.750197C200.714 0.698114 189.432 0.677279 178.281 0.744988C160.948 0.843946 143.932 1.09395 127.714 1.34395C109.636 1.6252 92.5626 1.97415 77.1407 2.30749C32.1199 3.29707 1.29175 4.18249 1.29175 4.18249C1.29175 4.18249 32.1199 5.0679 77.1407 6.05749C92.5626 6.39082 109.636 6.73978 127.714 7.01582C143.932 7.27103 160.948 7.51582 178.281 7.61999C189.432 7.6877 200.714 7.66165 212 7.61478C226.13 7.55228 240.261 7.40645 254.141 7.2502C268.557 7.08353 282.698 6.8752 296.281 6.65124C324.958 6.18249 351.13 5.67728 372.136 5.2554C403.021 4.65124 422.703 4.18249 422.703 4.18249Z" fill="#FBC270"/>
</g>
</svg>
