<svg width="126" height="126" viewBox="0 0 126 126" fill="none" xmlns="http://www.w3.org/2000/svg">
<mask id="mask0_2_1582" style="mask-type:luminance" maskUnits="userSpaceOnUse" x="0" y="0" width="126" height="126">
<path d="M125.333 0H0V125.333H125.333V0Z" fill="white"/>
</mask>
<g mask="url(#mask0_2_1582)">
<mask id="mask1_2_1582" style="mask-type:luminance" maskUnits="userSpaceOnUse" x="0" y="0" width="125" height="125">
<path d="M0.21875 0.947754H124.219V124.948H0.21875V0.947754Z" fill="white"/>
</mask>
<g mask="url(#mask1_2_1582)">
<path d="M62.297 0.958008C79.4377 0.958008 94.9585 7.90593 106.198 19.1455C117.432 30.3799 124.386 45.9007 124.386 63.0466C124.386 80.1872 117.432 95.7132 106.198 106.948C94.9585 118.187 79.4429 125.13 62.297 125.13C45.1512 125.13 29.6304 118.182 18.3908 106.948C7.15641 95.7132 0.208496 80.1872 0.208496 63.0466C0.208496 45.9007 7.15641 30.3799 18.3908 19.1455C29.6252 7.90593 45.1512 0.958008 62.297 0.958008ZM103.755 21.583C93.146 10.9736 78.4897 4.40593 62.297 4.40593C46.1043 4.40593 31.4429 10.9736 20.8335 21.583C10.2189 32.1924 3.65641 46.8538 3.65641 63.0466C3.65641 79.2393 10.2189 93.8955 20.8335 104.51C31.4429 115.119 46.0991 121.682 62.297 121.682C78.4845 121.682 93.146 115.119 103.755 104.51C114.37 93.8955 120.932 79.2393 120.932 63.0466C120.932 46.8538 114.37 32.1924 103.755 21.583Z" fill="#ECECEC"/>
</g>
<path d="M97.604 30.5049L24.2759 57.1559L44.9321 70.0882L97.604 30.5049Z" fill="#ECECEC"/>
<path d="M100.312 30.7446L56.875 76.4373L82.4531 95.5884L100.312 30.7446Z" fill="#ECECEC"/>
<path d="M55.1825 76.3175C55.2241 76.1978 55.2918 76.0936 55.3752 76.0155L95.521 33.7915L45.7241 71.2134L49.8908 93.229L55.1825 76.3175Z" fill="#ECECEC"/>
</g>
</svg>
