<svg width="262" height="111" viewBox="0 0 262 111" fill="none" xmlns="http://www.w3.org/2000/svg">
<mask id="mask0_9_2987" style="mask-type:luminance" maskUnits="userSpaceOnUse" x="8" y="4" width="231" height="107">
<path d="M238.667 4H8V110.667H238.667V4Z" fill="white"/>
</mask>
<g mask="url(#mask0_9_2987)">
<path d="M45.5858 86.6333C39.3619 86.6333 33.7941 85.7218 28.8775 83.9041C23.9712 82.0708 20.0285 79.4875 17.0441 76.1541C14.0546 72.8208 12.2785 68.9041 11.7108 64.4041L29.315 60.9458C29.7577 64.8625 31.4712 67.9771 34.4608 70.2791C37.4452 72.5864 41.1796 73.7375 45.6691 73.7375C50.2212 73.7375 53.8358 72.6698 56.5025 70.5291C59.1692 68.3781 60.5025 65.5031 60.5025 61.9041C60.5025 58.2531 59.1952 55.3364 56.5858 53.1541C53.9869 50.9771 50.4816 49.8833 46.065 49.8833C43.565 49.8833 41.19 50.3364 38.94 51.2375C36.69 52.1281 34.9608 53.3104 33.7525 54.7791L19.0233 52.2791L21.3358 16.1958H70.6067V28.3208H36.44L35.3775 43.3416C37.2369 41.9979 39.5754 40.9562 42.3983 40.2166C45.216 39.4823 48.1066 39.1125 51.065 39.1125C56.5754 39.1125 61.3827 40.0604 65.4817 41.9458C69.591 43.8364 72.7733 46.4979 75.0233 49.925C77.2733 53.3573 78.3983 57.4198 78.3983 62.1125C78.3983 67.1125 77.0285 71.4614 74.2942 75.1541C71.5702 78.8364 67.7525 81.6698 62.8358 83.6541C57.9296 85.6385 52.1796 86.6333 45.5858 86.6333Z" fill="#ECECEC"/>
<path d="M121.598 86.633C114.275 86.633 107.858 85.0965 102.348 82.0288C96.8324 78.9455 92.5355 74.6955 89.4521 69.2788C86.3688 63.8517 84.8271 57.5809 84.8271 50.4663C84.8271 43.3413 86.3688 37.0601 89.4521 31.6121C92.5355 26.1538 96.8324 21.9038 102.348 18.8621C107.858 15.8101 114.275 14.2788 121.598 14.2788C128.9 14.2788 135.312 15.8101 140.827 18.8621C146.353 21.9038 150.65 26.1538 153.723 31.6121C156.806 37.0601 158.348 43.3413 158.348 50.4663C158.348 57.5809 156.806 63.8517 153.723 69.2788C150.65 74.6955 146.353 78.9455 140.827 82.0288C135.312 85.0965 128.9 86.633 121.598 86.633ZM121.598 72.9663C125.442 72.9663 128.791 72.008 131.64 70.0913C134.499 68.1642 136.713 65.5184 138.285 62.1538C139.853 58.7788 140.64 54.883 140.64 50.4663C140.64 45.9663 139.853 42.0392 138.285 38.6746C136.713 35.2996 134.499 32.6694 131.64 30.7788C128.791 28.8934 125.442 27.9455 121.598 27.9455C117.806 27.9455 114.463 28.8934 111.577 30.7788C108.702 32.6694 106.457 35.2996 104.848 38.6746C103.249 42.0392 102.452 45.9663 102.452 50.4663C102.452 54.883 103.249 58.7788 104.848 62.1538C106.457 65.5184 108.702 68.1642 111.577 70.0913C114.463 72.008 117.806 72.9663 121.598 72.9663Z" fill="#ECECEC"/>
<path d="M235.627 64.029C235.627 68.6436 234.21 72.6696 231.377 76.1123C228.554 79.5446 224.596 82.2061 219.502 84.0915C214.403 85.9769 208.486 86.9561 201.752 87.029V97.2165H198.002V86.9248C192.736 86.6019 187.804 85.6592 183.21 84.0915C178.627 82.5238 174.695 80.3623 171.419 77.6123C168.153 74.8519 165.783 71.6071 164.315 67.8831L175.773 60.7581C177.44 64.3571 180.294 67.3571 184.335 69.7581C188.377 72.1644 192.929 73.654 198.002 74.2373V56.529L192.023 55.5498C183.299 54.2738 176.945 52.0811 172.96 48.9665C168.986 45.8571 167.002 41.5446 167.002 36.029C167.002 31.529 168.315 27.6644 170.94 24.4248C173.575 21.1904 177.221 18.6644 181.877 16.8415C186.528 15.0081 191.903 14.0238 198.002 13.8831V5.7998H201.752V13.9873C206.236 14.1852 210.403 14.9404 214.252 16.2581C218.096 17.5654 221.445 19.3311 224.294 21.5498C227.153 23.7581 229.294 26.3363 230.71 29.279L220.023 36.5081C218.356 33.6904 215.882 31.3623 212.606 29.529C209.341 27.6956 205.721 26.6227 201.752 26.2998V42.654L208.669 43.7165C218.044 45.0081 224.877 47.2946 229.169 50.5706C233.471 53.8363 235.627 58.3206 235.627 64.029ZM196.648 41.904L198.002 42.0915V26.2165C194.012 26.4144 190.773 27.279 188.273 28.8206C185.773 30.3519 184.523 32.2686 184.523 34.5706C184.45 36.5029 185.382 38.0446 187.315 39.1956C189.242 40.3519 192.356 41.2529 196.648 41.904ZM202.127 74.4248C207.07 74.4248 210.986 73.6071 213.877 71.9665C216.762 70.3311 218.21 68.2269 218.21 65.654C218.21 63.6123 217.085 61.9352 214.835 60.6123C212.585 59.2946 208.992 58.2529 204.065 57.4873L201.752 57.0915V74.4248H202.127Z" fill="#ECECEC"/>
</g>
<line x1="2.76618" y1="2.15258" x2="260.766" y2="109.153" stroke="#FF0000" stroke-width="4"/>
<line y1="-2" x2="279.308" y2="-2" transform="matrix(-0.923711 0.38309 0.38309 0.923711 260 4)" stroke="#FF0000" stroke-width="4"/>
</svg>
