<svg width="126" height="126" viewBox="0 0 126 126" fill="none" xmlns="http://www.w3.org/2000/svg">
<mask id="mask0_2_1600" style="mask-type:luminance" maskUnits="userSpaceOnUse" x="0" y="0" width="126" height="126">
<path d="M125.333 0H0V125.333H125.333V0Z" fill="white"/>
</mask>
<g mask="url(#mask0_2_1600)">
<mask id="mask1_2_1600" style="mask-type:luminance" maskUnits="userSpaceOnUse" x="0" y="0" width="125" height="125">
<path d="M0.78125 0.947754H124.781V124.948H0.78125V0.947754Z" fill="white"/>
</mask>
<g mask="url(#mask1_2_1600)">
<path d="M96.0208 125.12H29.7135C13.7604 125.12 0.78125 112.14 0.78125 96.1873V29.88C0.78125 13.9269 13.7604 0.947754 29.7135 0.947754H96.0208C111.974 0.947754 124.953 13.9269 124.953 29.88V96.1873C124.953 112.14 111.974 125.12 96.0208 125.12ZM29.7135 5.73421C16.401 5.73421 5.56771 16.5675 5.56771 29.88V96.1873C5.56771 109.505 16.401 120.338 29.7135 120.338H96.0208C109.333 120.338 120.167 109.505 120.167 96.1873V29.88C120.167 16.5675 109.339 5.73421 96.0208 5.73421H29.7135Z" fill="#ECECEC"/>
</g>
<path d="M62.87 90.1615C46.5887 90.1615 33.3491 76.9219 33.3491 60.6458C33.3491 44.3646 46.5887 31.125 62.87 31.125C79.146 31.125 92.3856 44.3646 92.3856 60.6458C92.3856 76.9219 79.146 90.1615 62.87 90.1615ZM62.87 35.9062C49.2293 35.9062 38.1304 47.0052 38.1304 60.6458C38.1304 74.2813 49.2293 85.3802 62.87 85.3802C76.5054 85.3802 87.6043 74.2813 87.6043 60.6458C87.6043 47.0052 76.5054 35.9062 62.87 35.9062Z" fill="#ECECEC"/>
<path d="M49.6719 60.6457H44.8906C44.8906 50.729 52.9531 42.6665 62.8698 42.6665V47.4478C55.5937 47.4478 49.6719 53.3696 49.6719 60.6457Z" fill="#ECECEC"/>
<path d="M102.219 31.7966C97.6354 31.7966 93.9062 28.0674 93.9062 23.4841C93.9062 18.9007 97.6354 15.1768 102.219 15.1768C106.797 15.1768 110.526 18.9007 110.526 23.4841C110.526 28.0674 106.797 31.7966 102.219 31.7966ZM102.219 19.958C100.276 19.958 98.6927 21.5413 98.6927 23.4841C98.6927 25.4268 100.276 27.0101 102.219 27.0101C104.161 27.0101 105.74 25.4268 105.74 23.4841C105.74 21.5413 104.161 19.958 102.219 19.958Z" fill="#ECECEC"/>
</g>
</svg>
